<svg xmlns="http://www.w3.org/2000/svg" xmlns:xlink="http://www.w3.org/1999/xlink" width="828" height="692pt" viewBox="0 0 620.58 692"><g id="graph0" class="graph" transform="scale(1 1) rotate(0) translate(4 688)"><title>dcHierarchy</title><polygon fill="#fff" stroke="none" points="-4 4 -4 -688 616.576 -688 616.576 4 -4 4"/><g id="node1" class="node"><title>BaseMixin</title><g id="a_node1"><a xlink:href="BaseMixin.html" xlink:title="BaseMixin"><ellipse cx="33.554" cy="-261" fill="#add8e6" stroke="#000" rx="33.608" ry="18"/><text x="33.554" y="-258.5" font-family="sans-serif" font-size="10" text-anchor="middle">BaseMixin</text></a></g></g><g id="node2" class="node"><title>ColorMixin</title><g id="a_node2"><a xlink:href="ColorMixin.html" xlink:title="ColorMixin"><ellipse cx="151.378" cy="-450" fill="#add8e6" stroke="#000" rx="33.608" ry="18"/><text x="151.378" y="-447.5" font-family="sans-serif" font-size="10" text-anchor="middle">ColorMixin</text></a></g></g><g id="edge15" class="edge"><title>BaseMixin-&gt;ColorMixin</title><path fill="none" stroke="#000" d="M38.1347,-278.845C45.3802,-311.031 64.4808,-379.496 103.108,-423 106.625,-426.962 110.87,-430.484 115.353,-433.568"/><polygon fill="#000" stroke="#000" points="113.788 -436.714 124.142 -438.96 117.449 -430.747 113.788 -436.714"/></g><g id="node3" class="node"><title>MarginMixin</title><g id="a_node3"><a xlink:href="MarginMixin.html" xlink:title="MarginMixin"><ellipse cx="151.378" cy="-531" fill="#add8e6" stroke="#000" rx="38.028" ry="18"/><text x="151.378" y="-528.5" font-family="sans-serif" font-size="10" text-anchor="middle">MarginMixin</text></a></g></g><g id="edge17" class="edge"><title>BaseMixin-&gt;MarginMixin</title><path fill="none" stroke="#000" d="M37.6809,-279.078C44.8701,-317.501 64.959,-409.306 103.108,-477 109.258,-487.914 117.869,-498.585 126.059,-507.52"/><polygon fill="#000" stroke="#000" points="123.645 -510.06 133.076 -514.888 128.714 -505.232 123.645 -510.06"/></g><g id="node7" class="node"><title>CapMixin</title><g id="a_node7"><a xlink:href="CapMixin.html" xlink:title="CapMixin"><ellipse cx="151.378" cy="-396" fill="#add8e6" stroke="#000" rx="30.044" ry="18"/><text x="151.378" y="-393.5" font-family="sans-serif" font-size="10" text-anchor="middle">CapMixin</text></a></g></g><g id="edge23" class="edge"><title>BaseMixin-&gt;CapMixin</title><path fill="none" stroke="#000" d="M42.3562,-278.535C53.2811,-301.551 74.993,-342.167 103.108,-369 107.487,-373.18 112.635,-376.959 117.893,-380.276"/><polygon fill="#000" stroke="#000" points="116.323 -383.412 126.728 -385.41 119.84 -377.359 116.323 -383.412"/></g><g id="node14" class="node"><title>DataCount</title><g id="a_node14"><a xlink:href="DataCount.html" xlink:title="DataCount"><ellipse cx="151.378" cy="-342" fill="#98fb98" stroke="#000" rx="35.141" ry="18"/><text x="151.378" y="-339.5" font-family="sans-serif" font-size="10" text-anchor="middle">DataCount</text></a></g></g><g id="edge12" class="edge"><title>BaseMixin-&gt;DataCount</title><path fill="none" stroke="#000" d="M52.3319,-276.198C65.8568,-287.46 85.1421,-302.891 103.108,-315 107.712,-318.103 112.692,-321.204 117.634,-324.141"/><polygon fill="#000" stroke="#000" points="115.989 -327.232 126.397 -329.213 119.496 -321.174 115.989 -327.232"/></g><g id="node15" class="node"><title>DataGrid</title><g id="a_node15"><a xlink:href="DataGrid.html" xlink:title="DataGrid"><ellipse cx="151.378" cy="-288" fill="#98fb98" stroke="#000" rx="30.044" ry="18"/><text x="151.378" y="-285.5" font-family="sans-serif" font-size="10" text-anchor="middle">DataGrid</text></a></g></g><g id="edge13" class="edge"><title>BaseMixin-&gt;DataGrid</title><path fill="none" stroke="#000" d="M64.6829,-268.023C79.5284,-271.484 97.5662,-275.689 113.256,-279.347"/><polygon fill="#000" stroke="#000" points="112.637 -282.796 123.171 -281.658 114.227 -275.979 112.637 -282.796"/></g><g id="node16" class="node"><title>DataTable</title><g id="a_node16"><a xlink:href="DataTable.html" xlink:title="DataTable"><ellipse cx="151.378" cy="-234" fill="#98fb98" stroke="#000" rx="32.93" ry="18"/><text x="151.378" y="-231.5" font-family="sans-serif" font-size="10" text-anchor="middle">DataTable</text></a></g></g><g id="edge14" class="edge"><title>BaseMixin-&gt;DataTable</title><path fill="none" stroke="#000" d="M64.6829,-253.977C78.7335,-250.701 95.6437,-246.759 110.717,-243.246"/><polygon fill="#000" stroke="#000" points="111.856 -246.574 120.801 -240.895 110.267 -239.757 111.856 -246.574"/></g><g id="node20" class="node"><title>NumberDisplay</title><g id="a_node20"><a xlink:href="NumberDisplay.html" xlink:title="NumberDisplay"><ellipse cx="151.378" cy="-180" fill="#98fb98" stroke="#000" rx="48.042" ry="18"/><text x="151.378" y="-177.5" font-family="sans-serif" font-size="10" text-anchor="middle">NumberDisplay</text></a></g></g><g id="edge21" class="edge"><title>BaseMixin-&gt;NumberDisplay</title><path fill="none" stroke="#000" d="M52.3319,-245.802C65.8568,-234.54 85.1421,-219.109 103.108,-207 106.634,-204.623 110.382,-202.247 114.163,-199.946"/><polygon fill="#000" stroke="#000" points="116.134 -202.847 122.961 -194.746 112.572 -196.821 116.134 -202.847"/></g><g id="node24" class="node"><title>SelectMenu</title><g id="a_node24"><a xlink:href="SelectMenu.html" xlink:title="SelectMenu"><ellipse cx="151.378" cy="-126" fill="#98fb98" stroke="#000" rx="38.028" ry="18"/><text x="151.378" y="-123.5" font-family="sans-serif" font-size="10" text-anchor="middle">SelectMenu</text></a></g></g><g id="edge29" class="edge"><title>BaseMixin-&gt;SelectMenu</title><path fill="none" stroke="#000" d="M42.3562,-243.465C53.2811,-220.449 74.993,-179.833 103.108,-153 106.599,-149.668 110.578,-146.591 114.711,-143.8"/><polygon fill="#000" stroke="#000" points="116.644 -146.72 123.306 -138.482 112.96 -140.767 116.644 -146.72"/></g><g id="node25" class="node"><title>CboxMenu</title><g id="a_node25"><a xlink:href="CboxMenu.html" xlink:title="CboxMenu"><ellipse cx="151.378" cy="-72" fill="#98fb98" stroke="#000" rx="34.964" ry="18"/><text x="151.378" y="-69.5" font-family="sans-serif" font-size="10" text-anchor="middle">CboxMenu</text></a></g></g><g id="edge30" class="edge"><title>BaseMixin-&gt;CboxMenu</title><path fill="none" stroke="#000" d="M38.1347,-243.155C45.3802,-210.969 64.4808,-142.504 103.108,-99 106.549,-95.124 110.685,-91.6696 115.061,-88.6339"/><polygon fill="#000" stroke="#000" points="116.994 -91.554 123.651 -83.312 113.307 -85.604 116.994 -91.554"/></g><g id="node27" class="node"><title>TextFilterWidget</title><g id="a_node27"><a xlink:href="TextFilterWidget.html" xlink:title="TextFilterWidget"><ellipse cx="151.378" cy="-18" fill="#98fb98" stroke="#000" rx="48.042" ry="18"/><text x="151.378" y="-15.5" font-family="sans-serif" font-size="10" text-anchor="middle">TextFilterWidget</text></a></g></g><g id="edge33" class="edge"><title>BaseMixin-&gt;TextFilterWidget</title><path fill="none" stroke="#000" d="M35.8892,-243.002C39.7008,-203.127 53.7793,-106.052 103.108,-45 105.313,-42.2708 107.872,-39.7654 110.637,-37.4762"/><polygon fill="#000" stroke="#000" points="112.76 -40.261 118.85 -31.591 108.682 -34.571 112.76 -40.261"/></g><g id="node4" class="node"><title>BubbleMixin</title><g id="a_node4"><a xlink:href="BubbleMixin.html" xlink:title="BubbleMixin"><ellipse cx="298.635" cy="-396" fill="#add8e6" stroke="#000" rx="38.704" ry="18"/><text x="298.635" y="-393.5" font-family="sans-serif" font-size="10" text-anchor="middle">BubbleMixin</text></a></g></g><g id="edge8" class="edge"><title>ColorMixin-&gt;BubbleMixin</title><path fill="none" stroke="#000" d="M179.359,-439.97C201.523,-431.73 233.225,-419.945 258.229,-410.649"/><polygon fill="#000" stroke="#000" points="259.641 -413.858 267.795 -407.093 257.202 -407.297 259.641 -413.858"/></g><g id="node5" class="node"><title>CoordinateGridMixin</title><g id="a_node5"><a xlink:href="CoordinateGridMixin.html" xlink:title="CoordinateGridMixin"><ellipse cx="298.635" cy="-558" fill="#add8e6" stroke="#000" rx="61.62" ry="18"/><text x="298.635" y="-555.5" font-family="sans-serif" font-size="10" text-anchor="middle">CoordinateGridMixin</text></a></g></g><g id="edge1" class="edge"><title>ColorMixin-&gt;CoordinateGridMixin</title><path fill="none" stroke="#000" d="M165.99,-466.398C181.413,-484.165 208.019,-512.453 235.648,-531 240.217,-534.067 245.19,-536.916 250.268,-539.524"/><polygon fill="#000" stroke="#000" points="248.926 -542.762 259.454 -543.953 251.966 -536.457 248.926 -542.762"/></g><g id="node17" class="node"><title>GeoChoroplethChart</title><g id="a_node17"><a xlink:href="GeoChoroplethChart.html" xlink:title="GeoChoroplethChart"><ellipse cx="298.635" cy="-504" fill="#98fb98" stroke="#000" rx="62.974" ry="18"/><text x="298.635" y="-501.5" font-family="sans-serif" font-size="10" text-anchor="middle">GeoChoroplethChart</text></a></g></g><g id="edge16" class="edge"><title>ColorMixin-&gt;GeoChoroplethChart</title><path fill="none" stroke="#000" d="M179.359,-460.03C199.19,-467.402 226.655,-477.613 250.128,-486.339"/><polygon fill="#000" stroke="#000" points="248.979 -489.646 259.572 -489.85 251.419 -483.085 248.979 -489.646"/></g><g id="node18" class="node"><title>HeatMap</title><g id="a_node18"><a xlink:href="HeatMap.html" xlink:title="HeatMap"><ellipse cx="298.635" cy="-612" fill="#98fb98" stroke="#000" rx="30.721" ry="18"/><text x="298.635" y="-609.5" font-family="sans-serif" font-size="10" text-anchor="middle">HeatMap</text></a></g></g><g id="edge19" class="edge"><title>ColorMixin-&gt;HeatMap</title><path fill="none" stroke="#000" d="M168.672,-465.98C178.501,-476.218 190.792,-490.141 199.648,-504 220.862,-537.196 207.688,-557.247 235.648,-585 242.697,-591.997 251.858,-597.318 260.964,-601.306"/><polygon fill="#000" stroke="#000" points="259.756 -604.592 270.343 -604.995 262.318 -598.078 259.756 -604.592"/></g><g id="node21" class="node"><title>PieChart</title><g id="a_node21"><a xlink:href="PieChart.html" xlink:title="PieChart"><ellipse cx="298.635" cy="-288" fill="#98fb98" stroke="#000" rx="28.69" ry="18"/><text x="298.635" y="-285.5" font-family="sans-serif" font-size="10" text-anchor="middle">PieChart</text></a></g></g><g id="edge22" class="edge"><title>ColorMixin-&gt;PieChart</title><path fill="none" stroke="#000" d="M178.934,-439.233C186.48,-435.102 194.135,-429.724 199.648,-423 231.73,-383.875 201.499,-352.334 235.648,-315 242.66,-307.335 252.232,-301.742 261.755,-297.706"/><polygon fill="#000" stroke="#000" points="263.037 -300.963 271.167 -294.169 260.575 -294.411 263.037 -300.963"/></g><g id="node22" class="node"><title>RowChart</title><g id="a_node22"><a xlink:href="RowChart.html" xlink:title="RowChart"><ellipse cx="298.635" cy="-450" fill="#98fb98" stroke="#000" rx="31.4" ry="18"/><text x="298.635" y="-447.5" font-family="sans-serif" font-size="10" text-anchor="middle">RowChart</text></a></g></g><g id="edge27" class="edge"><title>ColorMixin-&gt;RowChart</title><path fill="none" stroke="#000" d="M184.977,-450C206.302,-450 234.324,-450 257.086,-450"/><polygon fill="#000" stroke="#000" points="257.131 -453.5 267.131 -450 257.131 -446.5 257.131 -453.5"/></g><g id="node26" class="node"><title>SunburstChart</title><g id="a_node26"><a xlink:href="SunburstChart.html" xlink:title="SunburstChart"><ellipse cx="298.635" cy="-342" fill="#98fb98" stroke="#000" rx="45.832" ry="18"/><text x="298.635" y="-339.5" font-family="sans-serif" font-size="10" text-anchor="middle">SunburstChart</text></a></g></g><g id="edge31" class="edge"><title>ColorMixin-&gt;SunburstChart</title><path fill="none" stroke="#000" d="M177.406,-438.529C185.055,-434.312 193.153,-429.061 199.648,-423 220.736,-403.32 213.527,-387.511 235.648,-369 240.91,-364.597 247.001,-360.796 253.268,-357.554"/><polygon fill="#000" stroke="#000" points="254.95 -360.63 262.499 -353.196 251.962 -354.3 254.95 -360.63"/></g><g id="edge2" class="edge"><title>MarginMixin-&gt;CoordinateGridMixin</title><path fill="none" stroke="#000" d="M187.171,-537.467C201.767,-540.18 219.192,-543.419 235.84,-546.514"/><polygon fill="#000" stroke="#000" points="235.602 -550.029 246.073 -548.416 236.881 -543.147 235.602 -550.029"/></g><g id="edge18" class="edge"><title>MarginMixin-&gt;HeatMap</title><path fill="none" stroke="#000" d="M173.355,-545.983C189.849,-557.421 213.64,-573.175 235.648,-585 244.474,-589.742 254.305,-594.323 263.49,-598.324"/><polygon fill="#000" stroke="#000" points="262.186 -601.573 272.758 -602.265 264.925 -595.131 262.186 -601.573"/></g><g id="edge26" class="edge"><title>MarginMixin-&gt;RowChart</title><path fill="none" stroke="#000" d="M173.355,-516.017C189.849,-504.579 213.64,-488.825 235.648,-477 244.397,-472.299 254.134,-467.756 263.25,-463.781"/><polygon fill="#000" stroke="#000" points="264.628 -466.998 272.458 -459.86 261.886 -460.557 264.628 -466.998"/></g><g id="node10" class="node"><title>BubbleChart</title><g id="a_node10"><a xlink:href="BubbleChart.html" xlink:title="BubbleChart"><ellipse cx="448.836" cy="-450" fill="#98fb98" stroke="#000" rx="40.058" ry="18"/><text x="448.836" y="-447.5" font-family="sans-serif" font-size="10" text-anchor="middle">BubbleChart</text></a></g></g><g id="edge7" class="edge"><title>BubbleMixin-&gt;BubbleChart</title><path fill="none" stroke="#000" d="M329.626,-406.928C352.101,-415.117 383.088,-426.408 407.697,-435.375"/><polygon fill="#000" stroke="#000" points="406.532 -438.675 417.126 -438.81 408.928 -432.098 406.532 -438.675"/></g><g id="node11" class="node"><title>BubbleOverlay</title><g id="a_node11"><a xlink:href="BubbleOverlay.html" xlink:title="BubbleOverlay"><ellipse cx="448.836" cy="-396" fill="#98fb98" stroke="#000" rx="45.832" ry="18"/><text x="448.836" y="-393.5" font-family="sans-serif" font-size="10" text-anchor="middle">BubbleOverlay</text></a></g></g><g id="edge9" class="edge"><title>BubbleMixin-&gt;BubbleOverlay</title><path fill="none" stroke="#000" d="M337.801,-396C354.439,-396 374.267,-396 392.478,-396"/><polygon fill="#000" stroke="#000" points="392.687 -399.5 402.687 -396 392.687 -392.5 392.687 -399.5"/></g><g id="node6" class="node"><title>StackMixin</title><g id="a_node6"><a xlink:href="StackMixin.html" xlink:title="StackMixin"><ellipse cx="448.836" cy="-558" fill="#add8e6" stroke="#000" rx="35.141" ry="18"/><text x="448.836" y="-555.5" font-family="sans-serif" font-size="10" text-anchor="middle">StackMixin</text></a></g></g><g id="edge3" class="edge"><title>CoordinateGridMixin-&gt;StackMixin</title><path fill="none" stroke="#000" d="M360.77,-558C374.863,-558 389.601,-558 402.86,-558"/><polygon fill="#000" stroke="#000" points="403.136 -561.5 413.136 -558 403.136 -554.5 403.136 -561.5"/></g><g id="node9" class="node"><title>BoxPlot</title><g id="a_node9"><a xlink:href="BoxPlot.html" xlink:title="BoxPlot"><ellipse cx="448.836" cy="-504" fill="#98fb98" stroke="#000" rx="27" ry="18"/><text x="448.836" y="-501.5" font-family="sans-serif" font-size="10" text-anchor="middle">BoxPlot</text></a></g></g><g id="edge5" class="edge"><title>CoordinateGridMixin-&gt;BoxPlot</title><path fill="none" stroke="#000" d="M338.186,-543.953C362.093,-535.242 392.47,-524.174 415.185,-515.897"/><polygon fill="#000" stroke="#000" points="416.523 -519.135 424.72 -512.423 414.126 -512.558 416.523 -519.135"/></g><g id="edge6" class="edge"><title>CoordinateGridMixin-&gt;BubbleChart</title><path fill="none" stroke="#000" d="M339.949,-544.458C347.616,-540.807 355.231,-536.349 361.622,-531 383.743,-512.489 376.284,-496.408 397.622,-477 401.459,-473.51 405.83,-470.317 410.355,-467.446"/><polygon fill="#000" stroke="#000" points="412.264 -470.384 419.146 -462.329 408.743 -464.335 412.264 -470.384"/></g><g id="node12" class="node"><title>CompositeChart</title><g id="a_node12"><a xlink:href="CompositeChart.html" xlink:title="CompositeChart"><ellipse cx="448.836" cy="-666" fill="#98fb98" stroke="#000" rx="51.428" ry="18"/><text x="448.836" y="-663.5" font-family="sans-serif" font-size="10" text-anchor="middle">CompositeChart</text></a></g></g><g id="edge10" class="edge"><title>CoordinateGridMixin-&gt;CompositeChart</title><path fill="none" stroke="#000" d="M339.949,-571.542C347.616,-575.193 355.231,-579.651 361.622,-585 383.743,-603.511 376.284,-619.592 397.622,-639 400.711,-641.81 404.146,-644.427 407.728,-646.838"/><polygon fill="#000" stroke="#000" points="405.91 -649.829 416.262 -652.085 409.577 -643.866 405.91 -649.829"/></g><g id="node23" class="node"><title>ScatterPlot</title><g id="a_node23"><a xlink:href="ScatterPlot.html" xlink:title="ScatterPlot"><ellipse cx="448.836" cy="-612" fill="#98fb98" stroke="#000" rx="36.494" ry="18"/><text x="448.836" y="-609.5" font-family="sans-serif" font-size="10" text-anchor="middle">ScatterPlot</text></a></g></g><g id="edge28" class="edge"><title>CoordinateGridMixin-&gt;ScatterPlot</title><path fill="none" stroke="#000" d="M338.186,-572.047C360.052,-580.014 387.33,-589.953 409.209,-597.925"/><polygon fill="#000" stroke="#000" points="408.248 -601.3 418.842 -601.435 410.644 -594.723 408.248 -601.3"/></g><g id="node8" class="node"><title>BarChart</title><g id="a_node8"><a xlink:href="BarChart.html" xlink:title="BarChart"><ellipse cx="574.313" cy="-531" fill="#98fb98" stroke="#000" rx="30.044" ry="18"/><text x="574.313" y="-528.5" font-family="sans-serif" font-size="10" text-anchor="middle">BarChart</text></a></g></g><g id="edge4" class="edge"><title>StackMixin-&gt;BarChart</title><path fill="none" stroke="#000" d="M481.634,-551.047C498.24,-547.416 518.658,-542.951 536.007,-539.157"/><polygon fill="#000" stroke="#000" points="536.794 -542.568 545.816 -537.013 535.299 -535.73 536.794 -542.568"/></g><g id="node19" class="node"><title>LineChart</title><g id="a_node19"><a xlink:href="LineChart.html" xlink:title="LineChart"><ellipse cx="574.313" cy="-585" fill="#98fb98" stroke="#000" rx="31.577" ry="18"/><text x="574.313" y="-582.5" font-family="sans-serif" font-size="10" text-anchor="middle">LineChart</text></a></g></g><g id="edge20" class="edge"><title>StackMixin-&gt;LineChart</title><path fill="none" stroke="#000" d="M481.634,-564.953C497.611,-568.447 517.118,-572.712 534.024,-576.409"/><polygon fill="#000" stroke="#000" points="533.643 -579.908 544.16 -578.625 535.139 -573.07 533.643 -579.908"/></g><g id="edge24" class="edge"><title>CapMixin-&gt;PieChart</title><path fill="none" stroke="#000" d="M175.947,-385.324C184.014,-380.979 192.739,-375.448 199.648,-369 220.736,-349.32 213.527,-333.511 235.648,-315 243.532,-308.403 253.276,-303.159 262.685,-299.116"/><polygon fill="#000" stroke="#000" points="264.261 -302.257 272.277 -295.33 261.691 -295.746 264.261 -302.257"/></g><g id="edge25" class="edge"><title>CapMixin-&gt;RowChart</title><path fill="none" stroke="#000" d="M177.349,-405.283C200.797,-414 236.11,-427.128 262.417,-436.908"/><polygon fill="#000" stroke="#000" points="261.422 -440.272 272.015 -440.476 263.861 -433.71 261.422 -440.272"/></g><g id="edge32" class="edge"><title>CapMixin-&gt;SunburstChart</title><path fill="none" stroke="#000" d="M177.349,-386.717C198.783,-378.749 230.132,-367.095 255.453,-357.682"/><polygon fill="#000" stroke="#000" points="256.675 -360.961 264.829 -354.196 254.236 -354.4 256.675 -360.961"/></g><g id="node13" class="node"><title>SeriesChart</title><g id="a_node13"><a xlink:href="SeriesChart.html" xlink:title="SeriesChart"><ellipse cx="574.313" cy="-666" fill="#98fb98" stroke="#000" rx="38.028" ry="18"/><text x="574.313" y="-663.5" font-family="sans-serif" font-size="10" text-anchor="middle">SeriesChart</text></a></g></g><g id="edge11" class="edge"><title>CompositeChart-&gt;SeriesChart</title><path fill="none" stroke="#000" d="M500.059,-666C508.603,-666 517.452,-666 525.92,-666"/><polygon fill="#000" stroke="#000" points="526.014 -669.5 536.014 -666 526.014 -662.5 526.014 -669.5"/></g></g></svg>